<mxfile host="app.diagrams.net" modified="2024-05-23T16:30:17.274Z" agent="Mozilla/5.0 (Windows NT 10.0; Win64; x64) AppleWebKit/537.36 (KHTML, like Gecko) Chrome/125.0.0.0 Safari/537.36 Edg/125.0.0.0" etag="XCcS9Eh_eLN8m8xq1oqi" version="24.4.6" type="github">
  <diagram name="Página-1" id="68lGUhUl_TbqVO0rFo0q">
    <mxGraphModel dx="1426" dy="1954" grid="1" gridSize="10" guides="1" tooltips="1" connect="1" arrows="1" fold="1" page="1" pageScale="1" pageWidth="827" pageHeight="1169" math="0" shadow="0">
      <root>
        <mxCell id="0" />
        <mxCell id="1" parent="0" />
        <mxCell id="TG7xAaqxiBiS51ZdgBSB-5" value="¿El usuario tiene una cuenta?" style="rhombus;whiteSpace=wrap;html=1;shadow=0;fontFamily=Helvetica;fontSize=12;align=center;strokeWidth=1;spacing=6;spacingTop=-4;" vertex="1" parent="1">
          <mxGeometry x="120" y="170" width="160" height="80" as="geometry" />
        </mxCell>
        <mxCell id="TG7xAaqxiBiS51ZdgBSB-32" value="" style="rounded=0;html=1;jettySize=auto;orthogonalLoop=1;fontSize=11;endArrow=classicThin;endFill=1;endSize=8;strokeWidth=1;shadow=0;labelBackgroundColor=none;edgeStyle=orthogonalEdgeStyle;" edge="1" parent="1" source="TG7xAaqxiBiS51ZdgBSB-34" target="TG7xAaqxiBiS51ZdgBSB-36">
          <mxGeometry relative="1" as="geometry" />
        </mxCell>
        <mxCell id="TG7xAaqxiBiS51ZdgBSB-33" value="" style="edgeStyle=orthogonalEdgeStyle;rounded=0;orthogonalLoop=1;jettySize=auto;html=1;" edge="1" parent="1" source="TG7xAaqxiBiS51ZdgBSB-34" target="TG7xAaqxiBiS51ZdgBSB-36">
          <mxGeometry relative="1" as="geometry" />
        </mxCell>
        <mxCell id="TG7xAaqxiBiS51ZdgBSB-34" value="User log in" style="rounded=1;whiteSpace=wrap;html=1;fontSize=12;glass=0;strokeWidth=1;shadow=0;" vertex="1" parent="1">
          <mxGeometry x="135" y="80" width="130" height="40" as="geometry" />
        </mxCell>
        <mxCell id="TG7xAaqxiBiS51ZdgBSB-35" value="No" style="edgeStyle=orthogonalEdgeStyle;rounded=0;html=1;jettySize=auto;orthogonalLoop=1;fontSize=11;endArrow=classicThin;endFill=1;endSize=8;strokeWidth=1;shadow=0;labelBackgroundColor=none;" edge="1" parent="1" source="TG7xAaqxiBiS51ZdgBSB-36" target="TG7xAaqxiBiS51ZdgBSB-38">
          <mxGeometry y="10" relative="1" as="geometry">
            <mxPoint as="offset" />
          </mxGeometry>
        </mxCell>
        <mxCell id="TG7xAaqxiBiS51ZdgBSB-36" value="Has the user an account?" style="rhombus;whiteSpace=wrap;html=1;shadow=0;fontFamily=Helvetica;fontSize=12;align=center;strokeWidth=1;spacing=6;spacingTop=-4;" vertex="1" parent="1">
          <mxGeometry x="120" y="170" width="160" height="80" as="geometry" />
        </mxCell>
        <mxCell id="TG7xAaqxiBiS51ZdgBSB-37" style="edgeStyle=orthogonalEdgeStyle;rounded=0;orthogonalLoop=1;jettySize=auto;html=1;exitX=1;exitY=0.5;exitDx=0;exitDy=0;entryX=1;entryY=0.5;entryDx=0;entryDy=0;endArrow=blockThin;endFill=0;" edge="1" parent="1" source="TG7xAaqxiBiS51ZdgBSB-38" target="TG7xAaqxiBiS51ZdgBSB-34">
          <mxGeometry relative="1" as="geometry" />
        </mxCell>
        <mxCell id="TG7xAaqxiBiS51ZdgBSB-38" value="&quot;Create an account, try again&quot;" style="rounded=1;whiteSpace=wrap;html=1;fontSize=12;glass=0;strokeWidth=1;shadow=0;" vertex="1" parent="1">
          <mxGeometry x="350" y="190" width="120" height="40" as="geometry" />
        </mxCell>
        <mxCell id="TG7xAaqxiBiS51ZdgBSB-39" value="No" style="rounded=0;html=1;jettySize=auto;orthogonalLoop=1;fontSize=11;endArrow=classicThin;endFill=1;endSize=8;strokeWidth=1;shadow=0;labelBackgroundColor=none;edgeStyle=orthogonalEdgeStyle;entryX=0.5;entryY=0;entryDx=0;entryDy=0;" edge="1" parent="1" source="TG7xAaqxiBiS51ZdgBSB-41" target="TG7xAaqxiBiS51ZdgBSB-45">
          <mxGeometry x="0.3333" y="20" relative="1" as="geometry">
            <mxPoint as="offset" />
            <mxPoint x="180" y="760" as="targetPoint" />
          </mxGeometry>
        </mxCell>
        <mxCell id="TG7xAaqxiBiS51ZdgBSB-40" value="Yes" style="edgeStyle=orthogonalEdgeStyle;rounded=0;html=1;jettySize=auto;orthogonalLoop=1;fontSize=11;endArrow=classicThin;endFill=1;endSize=8;strokeWidth=1;shadow=0;labelBackgroundColor=none;" edge="1" parent="1" source="TG7xAaqxiBiS51ZdgBSB-41" target="TG7xAaqxiBiS51ZdgBSB-43">
          <mxGeometry y="10" relative="1" as="geometry">
            <mxPoint as="offset" />
          </mxGeometry>
        </mxCell>
        <mxCell id="TG7xAaqxiBiS51ZdgBSB-41" value="¿Is manager?" style="rhombus;whiteSpace=wrap;html=1;shadow=0;fontFamily=Helvetica;fontSize=12;align=center;strokeWidth=1;spacing=6;spacingTop=-4;" vertex="1" parent="1">
          <mxGeometry x="150" y="505" width="100" height="80" as="geometry" />
        </mxCell>
        <mxCell id="TG7xAaqxiBiS51ZdgBSB-42" style="edgeStyle=orthogonalEdgeStyle;rounded=0;orthogonalLoop=1;jettySize=auto;html=1;exitX=1;exitY=0.5;exitDx=0;exitDy=0;entryX=0.5;entryY=0;entryDx=0;entryDy=0;" edge="1" parent="1" source="TG7xAaqxiBiS51ZdgBSB-43" target="TG7xAaqxiBiS51ZdgBSB-56">
          <mxGeometry relative="1" as="geometry">
            <Array as="points">
              <mxPoint x="480" y="545" />
              <mxPoint x="480" y="880" />
              <mxPoint x="200" y="880" />
            </Array>
          </mxGeometry>
        </mxCell>
        <mxCell id="TG7xAaqxiBiS51ZdgBSB-43" value="Open graphic interface" style="rounded=1;whiteSpace=wrap;html=1;fontSize=12;glass=0;strokeWidth=1;shadow=0;" vertex="1" parent="1">
          <mxGeometry x="340" y="525" width="120" height="40" as="geometry" />
        </mxCell>
        <mxCell id="TG7xAaqxiBiS51ZdgBSB-44" value="&lt;b&gt;Log in&lt;/b&gt;" style="text;html=1;align=center;verticalAlign=middle;whiteSpace=wrap;rounded=0;" vertex="1" parent="1">
          <mxGeometry x="160" y="-30" width="100" height="30" as="geometry" />
        </mxCell>
        <mxCell id="TG7xAaqxiBiS51ZdgBSB-45" value="Is user?" style="rhombus;whiteSpace=wrap;html=1;" vertex="1" parent="1">
          <mxGeometry x="150" y="630" width="100" height="100" as="geometry" />
        </mxCell>
        <mxCell id="TG7xAaqxiBiS51ZdgBSB-46" value="Yes" style="edgeStyle=orthogonalEdgeStyle;rounded=0;html=1;jettySize=auto;orthogonalLoop=1;fontSize=11;endArrow=classicThin;endFill=1;endSize=8;strokeWidth=1;shadow=0;labelBackgroundColor=none;exitX=1;exitY=0.5;exitDx=0;exitDy=0;entryX=0;entryY=0.5;entryDx=0;entryDy=0;" edge="1" parent="1" source="TG7xAaqxiBiS51ZdgBSB-45" target="TG7xAaqxiBiS51ZdgBSB-48">
          <mxGeometry y="10" relative="1" as="geometry">
            <mxPoint as="offset" />
            <mxPoint x="230" y="809.5" as="sourcePoint" />
            <mxPoint x="300" y="809.5" as="targetPoint" />
          </mxGeometry>
        </mxCell>
        <mxCell id="TG7xAaqxiBiS51ZdgBSB-47" style="edgeStyle=orthogonalEdgeStyle;rounded=0;orthogonalLoop=1;jettySize=auto;html=1;exitX=1;exitY=0.5;exitDx=0;exitDy=0;entryX=0.5;entryY=0;entryDx=0;entryDy=0;" edge="1" parent="1" source="TG7xAaqxiBiS51ZdgBSB-48" target="TG7xAaqxiBiS51ZdgBSB-56">
          <mxGeometry relative="1" as="geometry">
            <Array as="points">
              <mxPoint x="480" y="680" />
              <mxPoint x="480" y="880" />
              <mxPoint x="200" y="880" />
            </Array>
          </mxGeometry>
        </mxCell>
        <mxCell id="TG7xAaqxiBiS51ZdgBSB-48" value="Open graphic interface" style="rounded=1;whiteSpace=wrap;html=1;fontSize=12;glass=0;strokeWidth=1;shadow=0;" vertex="1" parent="1">
          <mxGeometry x="340" y="660" width="120" height="40" as="geometry" />
        </mxCell>
        <mxCell id="TG7xAaqxiBiS51ZdgBSB-49" value="Are data enter succesfully?" style="rhombus;whiteSpace=wrap;html=1;" vertex="1" parent="1">
          <mxGeometry x="150" y="330" width="100" height="100" as="geometry" />
        </mxCell>
        <mxCell id="TG7xAaqxiBiS51ZdgBSB-50" value="Yes" style="edgeStyle=orthogonalEdgeStyle;rounded=0;html=1;jettySize=auto;orthogonalLoop=1;fontSize=11;endArrow=classicThin;endFill=1;endSize=8;strokeWidth=1;shadow=0;labelBackgroundColor=none;exitX=0.5;exitY=1;exitDx=0;exitDy=0;entryX=0.5;entryY=0;entryDx=0;entryDy=0;" edge="1" parent="1" source="TG7xAaqxiBiS51ZdgBSB-36" target="TG7xAaqxiBiS51ZdgBSB-49">
          <mxGeometry y="10" relative="1" as="geometry">
            <mxPoint as="offset" />
            <mxPoint x="200" y="260" as="sourcePoint" />
            <mxPoint x="270" y="260" as="targetPoint" />
          </mxGeometry>
        </mxCell>
        <mxCell id="TG7xAaqxiBiS51ZdgBSB-51" value="No" style="edgeStyle=orthogonalEdgeStyle;rounded=0;html=1;jettySize=auto;orthogonalLoop=1;fontSize=11;endArrow=classicThin;endFill=1;endSize=8;strokeWidth=1;shadow=0;labelBackgroundColor=none;exitX=1;exitY=0.5;exitDx=0;exitDy=0;entryX=0;entryY=0.5;entryDx=0;entryDy=0;" edge="1" parent="1" source="TG7xAaqxiBiS51ZdgBSB-49" target="TG7xAaqxiBiS51ZdgBSB-53">
          <mxGeometry y="10" relative="1" as="geometry">
            <mxPoint as="offset" />
            <mxPoint x="320" y="350" as="sourcePoint" />
            <mxPoint x="368" y="380" as="targetPoint" />
          </mxGeometry>
        </mxCell>
        <mxCell id="TG7xAaqxiBiS51ZdgBSB-52" style="edgeStyle=orthogonalEdgeStyle;rounded=0;orthogonalLoop=1;jettySize=auto;html=1;exitX=1;exitY=0.5;exitDx=0;exitDy=0;entryX=1;entryY=0.5;entryDx=0;entryDy=0;endArrow=classicThin;endFill=1;" edge="1" parent="1" source="TG7xAaqxiBiS51ZdgBSB-53" target="TG7xAaqxiBiS51ZdgBSB-34">
          <mxGeometry relative="1" as="geometry">
            <Array as="points">
              <mxPoint x="490" y="380" />
              <mxPoint x="490" y="100" />
            </Array>
          </mxGeometry>
        </mxCell>
        <mxCell id="TG7xAaqxiBiS51ZdgBSB-53" value="&quot;User or password wrong, try again&quot;" style="shape=parallelogram;perimeter=parallelogramPerimeter;whiteSpace=wrap;html=1;fixedSize=1;" vertex="1" parent="1">
          <mxGeometry x="354" y="350" width="120" height="60" as="geometry" />
        </mxCell>
        <mxCell id="TG7xAaqxiBiS51ZdgBSB-54" value="Yes" style="edgeStyle=orthogonalEdgeStyle;rounded=0;html=1;jettySize=auto;orthogonalLoop=1;fontSize=11;endArrow=classicThin;endFill=1;endSize=8;strokeWidth=1;shadow=0;labelBackgroundColor=none;entryX=0.5;entryY=0;entryDx=0;entryDy=0;exitX=0.5;exitY=1;exitDx=0;exitDy=0;" edge="1" parent="1" source="TG7xAaqxiBiS51ZdgBSB-49" target="TG7xAaqxiBiS51ZdgBSB-41">
          <mxGeometry y="10" relative="1" as="geometry">
            <mxPoint as="offset" />
            <mxPoint x="200" y="440" as="sourcePoint" />
            <mxPoint x="324" y="460" as="targetPoint" />
          </mxGeometry>
        </mxCell>
        <mxCell id="TG7xAaqxiBiS51ZdgBSB-55" value="" style="ellipse;fillColor=strokeColor;html=1;" vertex="1" parent="1">
          <mxGeometry x="185" y="10" width="30" height="30" as="geometry" />
        </mxCell>
        <mxCell id="TG7xAaqxiBiS51ZdgBSB-56" value="" style="ellipse;html=1;shape=endState;fillColor=strokeColor;" vertex="1" parent="1">
          <mxGeometry x="185" y="930" width="30" height="30" as="geometry" />
        </mxCell>
        <mxCell id="TG7xAaqxiBiS51ZdgBSB-57" value="" style="edgeStyle=orthogonalEdgeStyle;rounded=0;orthogonalLoop=1;jettySize=auto;html=1;exitX=0.5;exitY=1;exitDx=0;exitDy=0;entryX=0.5;entryY=0;entryDx=0;entryDy=0;" edge="1" parent="1" source="TG7xAaqxiBiS51ZdgBSB-55" target="TG7xAaqxiBiS51ZdgBSB-34">
          <mxGeometry relative="1" as="geometry">
            <mxPoint x="190" y="50" as="sourcePoint" />
            <mxPoint x="190" y="100" as="targetPoint" />
          </mxGeometry>
        </mxCell>
      </root>
    </mxGraphModel>
  </diagram>
</mxfile>
